<svg width="133" height="127" viewBox="0 0 133 127" fill="none" xmlns="http://www.w3.org/2000/svg">
<g filter="url(#filter0_d_201_2)">
<g filter="url(#filter1_d_201_2)">
<path d="M10.888 117.592C8.328 117.165 6.70667 116.141 6.024 114.52C5.256 112.984 5.64 110.893 7.176 108.248C9.224 104.749 11.1013 100.525 12.808 95.576C14.4293 90.712 16.0507 85.4213 17.672 79.704C19.208 73.9867 20.872 68.2267 22.664 62.424C24.456 56.536 26.4613 50.904 28.68 45.528C30.984 40.152 33.6293 35.3733 36.616 31.192C39.688 27.0107 43.2293 23.6827 47.24 21.208C51.336 18.7333 56.072 17.496 61.448 17.496C66.4827 17.496 70.9627 18.7333 74.888 21.208C78.8987 23.6827 82.056 27.1813 84.36 31.704C86.7493 36.1413 87.944 41.432 87.944 47.576C87.944 54.1467 87.0053 59.992 85.128 65.112C83.336 70.1467 80.904 74.4133 77.832 77.912C74.76 81.4107 71.3467 84.056 67.592 85.848C63.8373 87.64 60.04 88.536 56.2 88.536C52.2747 88.536 49.0747 87.8107 46.6 86.36C44.2107 84.824 42.376 82.904 41.096 80.6C39.816 78.296 39.0053 75.9493 38.664 73.56C38.4933 72.1947 38.9627 71.384 40.072 71.128C41.2667 70.7867 42.0347 71.0853 42.376 72.024C43.144 73.9013 44.296 75.5227 45.832 76.888C47.4533 78.168 49.672 78.808 52.488 78.808C56.7547 78.808 60.3813 77.1867 63.368 73.944C66.44 70.616 68.7867 66.1787 70.408 60.632C72.1147 55 72.968 48.6853 72.968 41.688C72.968 36.3973 72.1147 32.3013 70.408 29.4C68.7013 26.4987 65.5013 25.048 60.808 25.048C57.1387 25.048 53.896 26.2853 51.08 28.76C48.264 31.2347 45.7467 34.6053 43.528 38.872C41.3947 43.0533 39.5173 47.7893 37.896 53.08C36.2747 58.3707 34.824 63.832 33.544 69.464C32.264 75.096 31.0693 80.5573 29.96 85.848C28.8507 91.1387 27.784 95.96 26.76 100.312C25.736 104.664 24.6693 108.12 23.56 110.68C22.3653 113.411 20.8293 115.373 18.952 116.568C17.0747 117.763 14.3867 118.104 10.888 117.592Z" fill="black"/>
<path d="M10.888 117.592C8.328 117.165 6.70667 116.141 6.024 114.52C5.256 112.984 5.64 110.893 7.176 108.248C9.224 104.749 11.1013 100.525 12.808 95.576C14.4293 90.712 16.0507 85.4213 17.672 79.704C19.208 73.9867 20.872 68.2267 22.664 62.424C24.456 56.536 26.4613 50.904 28.68 45.528C30.984 40.152 33.6293 35.3733 36.616 31.192C39.688 27.0107 43.2293 23.6827 47.24 21.208C51.336 18.7333 56.072 17.496 61.448 17.496C66.4827 17.496 70.9627 18.7333 74.888 21.208C78.8987 23.6827 82.056 27.1813 84.36 31.704C86.7493 36.1413 87.944 41.432 87.944 47.576C87.944 54.1467 87.0053 59.992 85.128 65.112C83.336 70.1467 80.904 74.4133 77.832 77.912C74.76 81.4107 71.3467 84.056 67.592 85.848C63.8373 87.64 60.04 88.536 56.2 88.536C52.2747 88.536 49.0747 87.8107 46.6 86.36C44.2107 84.824 42.376 82.904 41.096 80.6C39.816 78.296 39.0053 75.9493 38.664 73.56C38.4933 72.1947 38.9627 71.384 40.072 71.128C41.2667 70.7867 42.0347 71.0853 42.376 72.024C43.144 73.9013 44.296 75.5227 45.832 76.888C47.4533 78.168 49.672 78.808 52.488 78.808C56.7547 78.808 60.3813 77.1867 63.368 73.944C66.44 70.616 68.7867 66.1787 70.408 60.632C72.1147 55 72.968 48.6853 72.968 41.688C72.968 36.3973 72.1147 32.3013 70.408 29.4C68.7013 26.4987 65.5013 25.048 60.808 25.048C57.1387 25.048 53.896 26.2853 51.08 28.76C48.264 31.2347 45.7467 34.6053 43.528 38.872C41.3947 43.0533 39.5173 47.7893 37.896 53.08C36.2747 58.3707 34.824 63.832 33.544 69.464C32.264 75.096 31.0693 80.5573 29.96 85.848C28.8507 91.1387 27.784 95.96 26.76 100.312C25.736 104.664 24.6693 108.12 23.56 110.68C22.3653 113.411 20.8293 115.373 18.952 116.568C17.0747 117.763 14.3867 118.104 10.888 117.592Z" fill="url(#paint0_linear_201_2)" fill-opacity="0.2"/>
</g>
</g>
<defs>
<filter id="filter0_d_201_2" x="0.872" y="17.496" width="91.072" height="108.864" filterUnits="userSpaceOnUse" color-interpolation-filters="sRGB">
<feFlood flood-opacity="0" result="BackgroundImageFix"/>
<feColorMatrix in="SourceAlpha" type="matrix" values="0 0 0 0 0 0 0 0 0 0 0 0 0 0 0 0 0 0 127 0" result="hardAlpha"/>
<feOffset dy="4"/>
<feGaussianBlur stdDeviation="2"/>
<feComposite in2="hardAlpha" operator="out"/>
<feColorMatrix type="matrix" values="0 0 0 0 0 0 0 0 0 0 0 0 0 0 0 0 0 0 0.25 0"/>
<feBlend mode="normal" in2="BackgroundImageFix" result="effect1_dropShadow_201_2"/>
<feBlend mode="normal" in="SourceGraphic" in2="effect1_dropShadow_201_2" result="shape"/>
</filter>
<filter id="filter1_d_201_2" x="0.872" y="17.496" width="91.072" height="108.864" filterUnits="userSpaceOnUse" color-interpolation-filters="sRGB">
<feFlood flood-opacity="0" result="BackgroundImageFix"/>
<feColorMatrix in="SourceAlpha" type="matrix" values="0 0 0 0 0 0 0 0 0 0 0 0 0 0 0 0 0 0 127 0" result="hardAlpha"/>
<feOffset dy="4"/>
<feGaussianBlur stdDeviation="2"/>
<feComposite in2="hardAlpha" operator="out"/>
<feColorMatrix type="matrix" values="0 0 0 0 0 0 0 0 0 0 0 0 0 0 0 0 0 0 0.25 0"/>
<feBlend mode="normal" in2="BackgroundImageFix" result="effect1_dropShadow_201_2"/>
<feBlend mode="normal" in="SourceGraphic" in2="effect1_dropShadow_201_2" result="shape"/>
</filter>
<linearGradient id="paint0_linear_201_2" x1="73.5946" y1="52.39" x2="22.7149" y2="119.607" gradientUnits="userSpaceOnUse">
<stop stop-color="#828282"/>
<stop offset="1" stop-opacity="0"/>
</linearGradient>
</defs>
</svg>
