<svg width="775" height="214" viewBox="0 0 775 214" fill="none" xmlns="http://www.w3.org/2000/svg">
<path d="M247.372 93.432H266.812V100.56H268.108C269.476 97.608 271.42 95.448 273.94 94.08C276.46 92.64 279.34 91.92 282.58 91.92C287.98 91.92 292.336 93.684 295.648 97.212C298.96 100.74 300.724 105.888 300.94 112.656L292.084 113.952C292.084 108.984 290.896 105.42 288.52 103.26C286.144 101.028 283.228 99.912 279.772 99.912C277.54 99.912 275.596 100.344 273.94 101.208C272.356 102.072 271.024 103.26 269.944 104.772C268.864 106.284 268.072 108.048 267.568 110.064C267.064 112.08 266.812 114.24 266.812 116.544V139.224H280.42V147H246.076V139.224H258.388V101.208H247.372V93.432ZM316.309 147H307.885V71.4H316.309V103.152H317.605C319.261 99.696 321.565 96.96 324.517 94.944C327.541 92.928 331.213 91.92 335.533 91.92C341.365 91.92 346.081 93.864 349.681 97.752C353.353 101.568 355.189 107.328 355.189 115.032V147H346.765V116.76C346.765 111.144 345.505 106.932 342.985 104.124C340.465 101.316 337.045 99.912 332.725 99.912C327.613 99.912 323.581 101.676 320.629 105.204C317.749 108.66 316.309 113.304 316.309 119.136V147ZM415.918 120.864C415.918 125.328 415.162 129.288 413.65 132.744C412.21 136.128 410.266 139.008 407.818 141.384C405.37 143.688 402.49 145.452 399.178 146.676C395.938 147.9 392.554 148.512 389.026 148.512C385.426 148.512 382.006 147.9 378.766 146.676C375.526 145.452 372.682 143.688 370.234 141.384C367.786 139.008 365.806 136.128 364.294 132.744C362.854 129.288 362.134 125.328 362.134 120.864V119.568C362.134 115.176 362.854 111.288 364.294 107.904C365.806 104.448 367.786 101.532 370.234 99.156C372.754 96.78 375.634 94.98 378.874 93.756C382.114 92.532 385.498 91.92 389.026 91.92C392.554 91.92 395.938 92.532 399.178 93.756C402.418 94.98 405.262 96.78 407.71 99.156C410.23 101.532 412.21 104.448 413.65 107.904C415.162 111.288 415.918 115.176 415.918 119.568V120.864ZM389.026 140.52C391.618 140.52 393.994 140.088 396.154 139.224C398.386 138.288 400.33 136.956 401.986 135.228C403.642 133.5 404.938 131.448 405.874 129.072C406.81 126.624 407.278 123.888 407.278 120.864V119.568C407.278 116.688 406.81 114.06 405.874 111.684C404.938 109.236 403.642 107.148 401.986 105.42C400.33 103.692 398.386 102.36 396.154 101.424C393.922 100.416 391.546 99.912 389.026 99.912C386.506 99.912 384.13 100.416 381.898 101.424C379.666 102.36 377.722 103.692 376.066 105.42C374.41 107.148 373.114 109.236 372.178 111.684C371.242 114.06 370.774 116.688 370.774 119.568V120.864C370.774 123.888 371.242 126.624 372.178 129.072C373.114 131.448 374.41 133.5 376.066 135.228C377.722 136.956 379.63 138.288 381.79 139.224C384.022 140.088 386.434 140.52 389.026 140.52ZM438.955 140.952C438.955 138.864 439.675 137.1 441.115 135.66C442.627 134.148 444.427 133.392 446.515 133.392C448.603 133.392 450.367 134.148 451.807 135.66C453.319 137.1 454.075 138.864 454.075 140.952C454.075 143.04 453.319 144.84 451.807 146.352C450.367 147.792 448.603 148.512 446.515 148.512C444.427 148.512 442.627 147.792 441.115 146.352C439.675 144.84 438.955 143.04 438.955 140.952ZM491.476 107.256C491.476 109.848 492.556 111.828 494.716 113.196C496.948 114.564 500.98 115.464 506.812 115.896C513.076 116.4 517.828 117.912 521.068 120.432C524.38 122.88 526.036 126.48 526.036 131.232V131.88C526.036 134.472 525.496 136.812 524.416 138.9C523.408 140.916 521.968 142.644 520.096 144.084C518.296 145.524 516.064 146.604 513.4 147.324C510.808 148.116 507.964 148.512 504.868 148.512C500.692 148.512 497.092 147.972 494.068 146.892C491.116 145.74 488.632 144.264 486.616 142.464C484.672 140.592 483.196 138.504 482.188 136.2C481.18 133.824 480.604 131.448 480.46 129.072L488.452 127.128C488.812 131.232 490.396 134.544 493.204 137.064C496.012 139.512 499.756 140.736 504.436 140.736C508.396 140.736 511.564 139.98 513.94 138.468C516.388 136.884 517.612 134.688 517.612 131.88C517.612 128.856 516.424 126.696 514.048 125.4C511.672 124.104 507.82 123.276 502.492 122.916C496.3 122.484 491.548 121.044 488.236 118.596C484.924 116.148 483.268 112.584 483.268 107.904V107.256C483.268 104.736 483.808 102.54 484.888 100.668C485.968 98.724 487.408 97.104 489.208 95.808C491.08 94.512 493.168 93.54 495.472 92.892C497.776 92.244 500.188 91.92 502.708 91.92C506.236 91.92 509.332 92.424 511.996 93.432C514.66 94.368 516.892 95.628 518.692 97.212C520.492 98.724 521.86 100.488 522.796 102.504C523.804 104.52 524.452 106.536 524.74 108.552L516.748 110.496C516.388 107.04 514.984 104.34 512.536 102.396C510.16 100.452 507.028 99.48 503.14 99.48C501.628 99.48 500.152 99.66 498.712 100.02C497.344 100.308 496.12 100.776 495.04 101.424C493.96 102.072 493.096 102.9 492.448 103.908C491.8 104.844 491.476 105.96 491.476 107.256ZM536.005 93.432H552.853V71.4H561.277V93.432H582.013V101.208H561.277V135.984C561.277 138.144 562.249 139.224 564.193 139.224H579.421V147H561.169C558.721 147 556.705 146.208 555.121 144.624C553.609 143.04 552.853 141.024 552.853 138.576V101.208H536.005V93.432ZM645.873 120.864C645.873 125.328 645.117 129.288 643.605 132.744C642.165 136.128 640.221 139.008 637.773 141.384C635.325 143.688 632.445 145.452 629.133 146.676C625.893 147.9 622.509 148.512 618.981 148.512C615.381 148.512 611.961 147.9 608.721 146.676C605.481 145.452 602.637 143.688 600.189 141.384C597.741 139.008 595.761 136.128 594.249 132.744C592.809 129.288 592.089 125.328 592.089 120.864V119.568C592.089 115.176 592.809 111.288 594.249 107.904C595.761 104.448 597.741 101.532 600.189 99.156C602.709 96.78 605.589 94.98 608.829 93.756C612.069 92.532 615.453 91.92 618.981 91.92C622.509 91.92 625.893 92.532 629.133 93.756C632.373 94.98 635.217 96.78 637.665 99.156C640.185 101.532 642.165 104.448 643.605 107.904C645.117 111.288 645.873 115.176 645.873 119.568V120.864ZM618.981 140.52C621.573 140.52 623.949 140.088 626.109 139.224C628.341 138.288 630.285 136.956 631.941 135.228C633.597 133.5 634.893 131.448 635.829 129.072C636.765 126.624 637.233 123.888 637.233 120.864V119.568C637.233 116.688 636.765 114.06 635.829 111.684C634.893 109.236 633.597 107.148 631.941 105.42C630.285 103.692 628.341 102.36 626.109 101.424C623.877 100.416 621.501 99.912 618.981 99.912C616.461 99.912 614.085 100.416 611.853 101.424C609.621 102.36 607.677 103.692 606.021 105.42C604.365 107.148 603.069 109.236 602.133 111.684C601.197 114.06 600.729 116.688 600.729 119.568V120.864C600.729 123.888 601.197 126.624 602.133 129.072C603.069 131.448 604.365 133.5 606.021 135.228C607.677 136.956 609.585 138.288 611.745 139.224C613.977 140.088 616.389 140.52 618.981 140.52ZM649.794 93.432H669.234V100.56H670.53C671.898 97.608 673.842 95.448 676.362 94.08C678.882 92.64 681.762 91.92 685.002 91.92C690.402 91.92 694.758 93.684 698.07 97.212C701.382 100.74 703.146 105.888 703.362 112.656L694.506 113.952C694.506 108.984 693.318 105.42 690.942 103.26C688.566 101.028 685.65 99.912 682.194 99.912C679.962 99.912 678.018 100.344 676.362 101.208C674.778 102.072 673.446 103.26 672.366 104.772C671.286 106.284 670.494 108.048 669.99 110.064C669.486 112.08 669.234 114.24 669.234 116.544V139.224H682.842V147H648.498V139.224H660.81V101.208H649.794V93.432ZM716.463 122.808C716.679 128.136 718.335 132.42 721.431 135.66C724.527 138.9 728.847 140.52 734.391 140.52C736.911 140.52 739.107 140.232 740.979 139.656C742.851 139.08 744.435 138.288 745.731 137.28C747.099 136.272 748.179 135.12 748.971 133.824C749.835 132.456 750.519 131.016 751.023 129.504L759.015 131.664C757.503 136.632 754.695 140.7 750.591 143.868C746.559 146.964 741.087 148.512 734.175 148.512C730.359 148.512 726.831 147.864 723.591 146.568C720.423 145.2 717.687 143.292 715.383 140.844C713.079 138.396 711.279 135.48 709.983 132.096C708.687 128.712 708.039 124.968 708.039 120.864V118.272C708.039 114.528 708.687 111.036 709.983 107.796C711.351 104.556 713.223 101.784 715.599 99.48C717.975 97.104 720.747 95.268 723.915 93.972C727.155 92.604 730.647 91.92 734.391 91.92C738.783 91.92 742.563 92.748 745.731 94.404C748.971 95.988 751.599 97.968 753.615 100.344C755.703 102.72 757.215 105.312 758.151 108.12C759.159 110.928 759.663 113.52 759.663 115.896V122.808H716.463ZM734.391 99.912C732.015 99.912 729.783 100.308 727.695 101.1C725.679 101.82 723.879 102.864 722.295 104.232C720.783 105.6 719.523 107.22 718.515 109.092C717.579 110.892 716.967 112.872 716.679 115.032H751.239C751.095 112.728 750.519 110.64 749.511 108.768C748.575 106.896 747.315 105.312 745.731 104.016C744.219 102.72 742.455 101.712 740.439 100.992C738.495 100.272 736.479 99.912 734.391 99.912Z" fill="black"/>
<g filter="url(#filter0_d_207_8)">
<g filter="url(#filter1_d_207_8)">
<rect x="4" y="6" width="200" height="200" rx="20" fill="#1F1F1F"/>
<rect x="4" y="6" width="200" height="200" rx="20" fill="url(#paint0_linear_207_8)" fill-opacity="0.2"/>
</g>
<g filter="url(#filter2_d_207_8)">
<path d="M61.888 161.592C59.328 161.165 57.7067 160.141 57.024 158.52C56.256 156.984 56.64 154.893 58.176 152.248C60.224 148.749 62.1013 144.525 63.808 139.576C65.4293 134.712 67.0507 129.421 68.672 123.704C70.208 117.987 71.872 112.227 73.664 106.424C75.456 100.536 77.4613 94.904 79.68 89.528C81.984 84.152 84.6293 79.3733 87.616 75.192C90.688 71.0107 94.2293 67.6827 98.24 65.208C102.336 62.7333 107.072 61.496 112.448 61.496C117.483 61.496 121.963 62.7333 125.888 65.208C129.899 67.6827 133.056 71.1813 135.36 75.704C137.749 80.1413 138.944 85.432 138.944 91.576C138.944 98.1467 138.005 103.992 136.128 109.112C134.336 114.147 131.904 118.413 128.832 121.912C125.76 125.411 122.347 128.056 118.592 129.848C114.837 131.64 111.04 132.536 107.2 132.536C103.275 132.536 100.075 131.811 97.6 130.36C95.2107 128.824 93.376 126.904 92.096 124.6C90.816 122.296 90.0053 119.949 89.664 117.56C89.4933 116.195 89.9627 115.384 91.072 115.128C92.2667 114.787 93.0347 115.085 93.376 116.024C94.144 117.901 95.296 119.523 96.832 120.888C98.4533 122.168 100.672 122.808 103.488 122.808C107.755 122.808 111.381 121.187 114.368 117.944C117.44 114.616 119.787 110.179 121.408 104.632C123.115 99 123.968 92.6853 123.968 85.688C123.968 80.3973 123.115 76.3013 121.408 73.4C119.701 70.4987 116.501 69.048 111.808 69.048C108.139 69.048 104.896 70.2853 102.08 72.76C99.264 75.2347 96.7467 78.6053 94.528 82.872C92.3947 87.0533 90.5173 91.7893 88.896 97.08C87.2747 102.371 85.824 107.832 84.544 113.464C83.264 119.096 82.0693 124.557 80.96 129.848C79.8507 135.139 78.784 139.96 77.76 144.312C76.736 148.664 75.6693 152.12 74.56 154.68C73.3653 157.411 71.8293 159.373 69.952 160.568C68.0747 161.763 65.3867 162.104 61.888 161.592Z" fill="#80DD36"/>
<path d="M61.888 161.592C59.328 161.165 57.7067 160.141 57.024 158.52C56.256 156.984 56.64 154.893 58.176 152.248C60.224 148.749 62.1013 144.525 63.808 139.576C65.4293 134.712 67.0507 129.421 68.672 123.704C70.208 117.987 71.872 112.227 73.664 106.424C75.456 100.536 77.4613 94.904 79.68 89.528C81.984 84.152 84.6293 79.3733 87.616 75.192C90.688 71.0107 94.2293 67.6827 98.24 65.208C102.336 62.7333 107.072 61.496 112.448 61.496C117.483 61.496 121.963 62.7333 125.888 65.208C129.899 67.6827 133.056 71.1813 135.36 75.704C137.749 80.1413 138.944 85.432 138.944 91.576C138.944 98.1467 138.005 103.992 136.128 109.112C134.336 114.147 131.904 118.413 128.832 121.912C125.76 125.411 122.347 128.056 118.592 129.848C114.837 131.64 111.04 132.536 107.2 132.536C103.275 132.536 100.075 131.811 97.6 130.36C95.2107 128.824 93.376 126.904 92.096 124.6C90.816 122.296 90.0053 119.949 89.664 117.56C89.4933 116.195 89.9627 115.384 91.072 115.128C92.2667 114.787 93.0347 115.085 93.376 116.024C94.144 117.901 95.296 119.523 96.832 120.888C98.4533 122.168 100.672 122.808 103.488 122.808C107.755 122.808 111.381 121.187 114.368 117.944C117.44 114.616 119.787 110.179 121.408 104.632C123.115 99 123.968 92.6853 123.968 85.688C123.968 80.3973 123.115 76.3013 121.408 73.4C119.701 70.4987 116.501 69.048 111.808 69.048C108.139 69.048 104.896 70.2853 102.08 72.76C99.264 75.2347 96.7467 78.6053 94.528 82.872C92.3947 87.0533 90.5173 91.7893 88.896 97.08C87.2747 102.371 85.824 107.832 84.544 113.464C83.264 119.096 82.0693 124.557 80.96 129.848C79.8507 135.139 78.784 139.96 77.76 144.312C76.736 148.664 75.6693 152.12 74.56 154.68C73.3653 157.411 71.8293 159.373 69.952 160.568C68.0747 161.763 65.3867 162.104 61.888 161.592Z" fill="url(#paint1_linear_207_8)" fill-opacity="0.2"/>
</g>
</g>
<defs>
<filter id="filter0_d_207_8" x="0" y="6" width="208" height="208" filterUnits="userSpaceOnUse" color-interpolation-filters="sRGB">
<feFlood flood-opacity="0" result="BackgroundImageFix"/>
<feColorMatrix in="SourceAlpha" type="matrix" values="0 0 0 0 0 0 0 0 0 0 0 0 0 0 0 0 0 0 127 0" result="hardAlpha"/>
<feOffset dy="4"/>
<feGaussianBlur stdDeviation="2"/>
<feComposite in2="hardAlpha" operator="out"/>
<feColorMatrix type="matrix" values="0 0 0 0 0 0 0 0 0 0 0 0 0 0 0 0 0 0 0.25 0"/>
<feBlend mode="normal" in2="BackgroundImageFix" result="effect1_dropShadow_207_8"/>
<feBlend mode="normal" in="SourceGraphic" in2="effect1_dropShadow_207_8" result="shape"/>
</filter>
<filter id="filter1_d_207_8" x="0" y="6" width="208" height="208" filterUnits="userSpaceOnUse" color-interpolation-filters="sRGB">
<feFlood flood-opacity="0" result="BackgroundImageFix"/>
<feColorMatrix in="SourceAlpha" type="matrix" values="0 0 0 0 0 0 0 0 0 0 0 0 0 0 0 0 0 0 127 0" result="hardAlpha"/>
<feOffset dy="4"/>
<feGaussianBlur stdDeviation="2"/>
<feComposite in2="hardAlpha" operator="out"/>
<feColorMatrix type="matrix" values="0 0 0 0 0 0 0 0 0 0 0 0 0 0 0 0 0 0 0.25 0"/>
<feBlend mode="normal" in2="BackgroundImageFix" result="effect1_dropShadow_207_8"/>
<feBlend mode="normal" in="SourceGraphic" in2="effect1_dropShadow_207_8" result="shape"/>
</filter>
<filter id="filter2_d_207_8" x="51.872" y="61.496" width="91.072" height="108.864" filterUnits="userSpaceOnUse" color-interpolation-filters="sRGB">
<feFlood flood-opacity="0" result="BackgroundImageFix"/>
<feColorMatrix in="SourceAlpha" type="matrix" values="0 0 0 0 0 0 0 0 0 0 0 0 0 0 0 0 0 0 127 0" result="hardAlpha"/>
<feOffset dy="4"/>
<feGaussianBlur stdDeviation="2"/>
<feComposite in2="hardAlpha" operator="out"/>
<feColorMatrix type="matrix" values="0 0 0 0 0 0 0 0 0 0 0 0 0 0 0 0 0 0 0.25 0"/>
<feBlend mode="normal" in2="BackgroundImageFix" result="effect1_dropShadow_207_8"/>
<feBlend mode="normal" in="SourceGraphic" in2="effect1_dropShadow_207_8" result="shape"/>
</filter>
<linearGradient id="paint0_linear_207_8" x1="199.833" y1="210.167" x2="25.6667" y2="31.8333" gradientUnits="userSpaceOnUse">
<stop stop-color="white"/>
<stop offset="1" stop-opacity="0"/>
</linearGradient>
<linearGradient id="paint1_linear_207_8" x1="124.595" y1="96.39" x2="73.7149" y2="163.607" gradientUnits="userSpaceOnUse">
<stop stop-color="#828282"/>
<stop offset="1" stop-opacity="0"/>
</linearGradient>
</defs>
</svg>
