<svg width="892" height="214" viewBox="0 0 892 214" fill="none" xmlns="http://www.w3.org/2000/svg">
<path d="M272.608 93.448H292.768V100.84H294.112C295.531 97.7787 297.547 95.5387 300.16 94.12C302.773 92.6267 305.76 91.88 309.12 91.88C314.72 91.88 319.237 93.7093 322.672 97.368C326.107 101.027 327.936 106.365 328.16 113.384L318.976 114.728C318.976 109.576 317.744 105.88 315.28 103.64C312.816 101.325 309.792 100.168 306.208 100.168C303.893 100.168 301.877 100.616 300.16 101.512C298.517 102.408 297.136 103.64 296.016 105.208C294.896 106.776 294.075 108.605 293.552 110.696C293.029 112.787 292.768 115.027 292.768 117.416V140.936H306.88V149H271.264V140.936H284.032V101.512H272.608V93.448ZM353.058 149H344.322V70.6H353.058V103.528H354.402C356.119 99.944 358.509 97.1067 361.57 95.016C364.706 92.9253 368.514 91.88 372.994 91.88C379.042 91.88 383.933 93.896 387.666 97.928C391.474 101.885 393.378 107.859 393.378 115.848V149H384.642V117.64C384.642 111.816 383.335 107.448 380.722 104.536C378.109 101.624 374.562 100.168 370.082 100.168C364.781 100.168 360.599 101.997 357.538 105.656C354.551 109.24 353.058 114.056 353.058 120.104V149ZM465.316 121.896C465.316 126.525 464.532 130.632 462.964 134.216C461.471 137.725 459.455 140.712 456.916 143.176C454.378 145.565 451.391 147.395 447.956 148.664C444.596 149.933 441.087 150.568 437.428 150.568C433.695 150.568 430.148 149.933 426.788 148.664C423.428 147.395 420.479 145.565 417.94 143.176C415.402 140.712 413.348 137.725 411.78 134.216C410.287 130.632 409.54 126.525 409.54 121.896V120.552C409.54 115.997 410.287 111.965 411.78 108.456C413.348 104.872 415.402 101.848 417.94 99.384C420.554 96.92 423.54 95.0533 426.9 93.784C430.26 92.5147 433.77 91.88 437.428 91.88C441.087 91.88 444.596 92.5147 447.956 93.784C451.316 95.0533 454.266 96.92 456.804 99.384C459.418 101.848 461.471 104.872 462.964 108.456C464.532 111.965 465.316 115.997 465.316 120.552V121.896ZM437.428 142.28C440.116 142.28 442.58 141.832 444.82 140.936C447.135 139.965 449.151 138.584 450.868 136.792C452.586 135 453.93 132.872 454.9 130.408C455.871 127.869 456.356 125.032 456.356 121.896V120.552C456.356 117.565 455.871 114.84 454.9 112.376C453.93 109.837 452.586 107.672 450.868 105.88C449.151 104.088 447.135 102.707 444.82 101.736C442.506 100.691 440.042 100.168 437.428 100.168C434.815 100.168 432.351 100.691 430.036 101.736C427.722 102.707 425.706 104.088 423.988 105.88C422.271 107.672 420.927 109.837 419.956 112.376C418.986 114.84 418.5 117.565 418.5 120.552V121.896C418.5 125.032 418.986 127.869 419.956 130.408C420.927 132.872 422.271 135 423.988 136.792C425.706 138.584 427.684 139.965 429.924 140.936C432.239 141.832 434.74 142.28 437.428 142.28ZM498.166 142.728C498.166 140.563 498.913 138.733 500.406 137.24C501.974 135.672 503.841 134.888 506.006 134.888C508.172 134.888 510.001 135.672 511.494 137.24C513.062 138.733 513.846 140.563 513.846 142.728C513.846 144.893 513.062 146.76 511.494 148.328C510.001 149.821 508.172 150.568 506.006 150.568C503.841 150.568 501.974 149.821 500.406 148.328C498.913 146.76 498.166 144.893 498.166 142.728ZM561.593 107.784C561.593 110.472 562.713 112.525 564.953 113.944C567.267 115.363 571.449 116.296 577.497 116.744C583.993 117.267 588.921 118.835 592.281 121.448C595.715 123.987 597.433 127.72 597.433 132.648V133.32C597.433 136.008 596.873 138.435 595.753 140.6C594.707 142.691 593.214 144.483 591.273 145.976C589.406 147.469 587.091 148.589 584.329 149.336C581.641 150.157 578.691 150.568 575.481 150.568C571.15 150.568 567.417 150.008 564.281 148.888C561.219 147.693 558.643 146.163 556.553 144.296C554.537 142.355 553.006 140.189 551.961 137.8C550.915 135.336 550.318 132.872 550.169 130.408L558.457 128.392C558.83 132.648 560.473 136.083 563.385 138.696C566.297 141.235 570.179 142.504 575.033 142.504C579.139 142.504 582.425 141.72 584.889 140.152C587.427 138.509 588.697 136.232 588.697 133.32C588.697 130.184 587.465 127.944 585.001 126.6C582.537 125.256 578.542 124.397 573.017 124.024C566.595 123.576 561.667 122.083 558.233 119.544C554.798 117.005 553.081 113.309 553.081 108.456V107.784C553.081 105.171 553.641 102.893 554.761 100.952C555.881 98.936 557.374 97.256 559.241 95.912C561.182 94.568 563.347 93.56 565.737 92.888C568.126 92.216 570.627 91.88 573.24 91.88C576.899 91.88 580.11 92.4027 582.873 93.448C585.635 94.4187 587.95 95.7253 589.817 97.368C591.683 98.936 593.102 100.765 594.073 102.856C595.118 104.947 595.79 107.037 596.089 109.128L587.801 111.144C587.427 107.56 585.971 104.76 583.433 102.744C580.969 100.728 577.721 99.72 573.689 99.72C572.121 99.72 570.59 99.9067 569.096 100.28C567.678 100.579 566.409 101.064 565.289 101.736C564.169 102.408 563.273 103.267 562.601 104.312C561.929 105.283 561.593 106.44 561.593 107.784ZM616.731 93.448H634.203V70.6H642.939V93.448H664.443V101.512H642.939V137.576C642.939 139.816 643.947 140.936 645.963 140.936H661.755V149H642.827C640.288 149 638.197 148.179 636.555 146.536C634.987 144.893 634.203 142.803 634.203 140.264V101.512H616.731V93.448ZM739.629 121.896C739.629 126.525 738.845 130.632 737.277 134.216C735.783 137.725 733.767 140.712 731.229 143.176C728.69 145.565 725.703 147.395 722.269 148.664C718.909 149.933 715.399 150.568 711.741 150.568C708.007 150.568 704.461 149.933 701.101 148.664C697.741 147.395 694.791 145.565 692.253 143.176C689.714 140.712 687.661 137.725 686.093 134.216C684.599 130.632 683.853 126.525 683.853 121.896V120.552C683.853 115.997 684.599 111.965 686.093 108.456C687.661 104.872 689.714 101.848 692.253 99.384C694.866 96.92 697.853 95.0533 701.213 93.784C704.573 92.5147 708.082 91.88 711.741 91.88C715.399 91.88 718.909 92.5147 722.269 93.784C725.629 95.0533 728.578 96.92 731.117 99.384C733.73 101.848 735.783 104.872 737.277 108.456C738.845 111.965 739.629 115.997 739.629 120.552V121.896ZM711.741 142.28C714.429 142.28 716.893 141.832 719.133 140.936C721.447 139.965 723.463 138.584 725.181 136.792C726.898 135 728.242 132.872 729.213 130.408C730.183 127.869 730.669 125.032 730.669 121.896V120.552C730.669 117.565 730.183 114.84 729.213 112.376C728.242 109.837 726.898 107.672 725.181 105.88C723.463 104.088 721.447 102.707 719.133 101.736C716.818 100.691 714.354 100.168 711.741 100.168C709.127 100.168 706.663 100.691 704.349 101.736C702.034 102.707 700.018 104.088 698.301 105.88C696.583 107.672 695.239 109.837 694.269 112.376C693.298 114.84 692.813 117.565 692.813 120.552V121.896C692.813 125.032 693.298 127.869 694.269 130.408C695.239 132.872 696.583 135 698.301 136.792C700.018 138.584 701.997 139.965 704.237 140.936C706.551 141.832 709.053 142.28 711.741 142.28ZM752.655 93.448H772.815V100.84H774.159C775.578 97.7787 777.594 95.5387 780.207 94.12C782.82 92.6267 785.807 91.88 789.167 91.88C794.767 91.88 799.284 93.7093 802.719 97.368C806.154 101.027 807.983 106.365 808.207 113.384L799.023 114.728C799.023 109.576 797.791 105.88 795.327 103.64C792.863 101.325 789.839 100.168 786.255 100.168C783.94 100.168 781.924 100.616 780.207 101.512C778.564 102.408 777.183 103.64 776.063 105.208C774.943 106.776 774.122 108.605 773.599 110.696C773.076 112.787 772.815 115.027 772.815 117.416V140.936H786.927V149H751.311V140.936H764.079V101.512H752.655V93.448ZM830.753 123.912C830.977 129.437 832.694 133.88 835.905 137.24C839.116 140.6 843.596 142.28 849.345 142.28C851.958 142.28 854.236 141.981 856.177 141.384C858.118 140.787 859.761 139.965 861.105 138.92C862.524 137.875 863.644 136.68 864.465 135.336C865.361 133.917 866.07 132.424 866.593 130.856L874.881 133.096C873.313 138.248 870.401 142.467 866.145 145.752C861.964 148.963 856.289 150.568 849.121 150.568C845.164 150.568 841.505 149.896 838.145 148.552C834.86 147.133 832.022 145.155 829.633 142.616C827.244 140.077 825.377 137.053 824.033 133.544C822.689 130.035 822.017 126.152 822.017 121.896V119.208C822.017 115.325 822.689 111.704 824.033 108.344C825.452 104.984 827.393 102.109 829.857 99.72C832.321 97.256 835.196 95.352 838.481 94.008C841.841 92.5893 845.462 91.88 849.345 91.88C853.9 91.88 857.82 92.7387 861.105 94.456C864.465 96.0987 867.19 98.152 869.281 100.616C871.446 103.08 873.014 105.768 873.985 108.68C875.03 111.592 875.553 114.28 875.553 116.744V123.912H830.753ZM849.345 100.168C846.881 100.168 844.566 100.579 842.401 101.4C840.31 102.147 838.444 103.229 836.801 104.648C835.233 106.067 833.926 107.747 832.881 109.688C831.91 111.555 831.276 113.608 830.977 115.848H866.817C866.668 113.459 866.07 111.293 865.025 109.352C864.054 107.411 862.748 105.768 861.105 104.424C859.537 103.08 857.708 102.035 855.617 101.288C853.601 100.541 851.51 100.168 849.345 100.168Z" fill="white"/>
<g filter="url(#filter0_d_207_9)">
<g filter="url(#filter1_d_207_9)">
<rect x="4" y="6" width="200" height="200" rx="20" fill="#1F1F1F"/>
<rect x="4" y="6" width="200" height="200" rx="20" fill="url(#paint0_linear_207_9)" fill-opacity="0.2"/>
</g>
<g filter="url(#filter2_d_207_9)">
<path d="M61.888 161.592C59.328 161.165 57.7067 160.141 57.024 158.52C56.256 156.984 56.64 154.893 58.176 152.248C60.224 148.749 62.1013 144.525 63.808 139.576C65.4293 134.712 67.0507 129.421 68.672 123.704C70.208 117.987 71.872 112.227 73.664 106.424C75.456 100.536 77.4613 94.904 79.68 89.528C81.984 84.152 84.6293 79.3733 87.616 75.192C90.688 71.0107 94.2293 67.6827 98.24 65.208C102.336 62.7333 107.072 61.496 112.448 61.496C117.483 61.496 121.963 62.7333 125.888 65.208C129.899 67.6827 133.056 71.1813 135.36 75.704C137.749 80.1413 138.944 85.432 138.944 91.576C138.944 98.1467 138.005 103.992 136.128 109.112C134.336 114.147 131.904 118.413 128.832 121.912C125.76 125.411 122.347 128.056 118.592 129.848C114.837 131.64 111.04 132.536 107.2 132.536C103.275 132.536 100.075 131.811 97.6 130.36C95.2107 128.824 93.376 126.904 92.096 124.6C90.816 122.296 90.0053 119.949 89.664 117.56C89.4933 116.195 89.9627 115.384 91.072 115.128C92.2667 114.787 93.0347 115.085 93.376 116.024C94.144 117.901 95.296 119.523 96.832 120.888C98.4533 122.168 100.672 122.808 103.488 122.808C107.755 122.808 111.381 121.187 114.368 117.944C117.44 114.616 119.787 110.179 121.408 104.632C123.115 99 123.968 92.6853 123.968 85.688C123.968 80.3973 123.115 76.3013 121.408 73.4C119.701 70.4987 116.501 69.048 111.808 69.048C108.139 69.048 104.896 70.2853 102.08 72.76C99.264 75.2347 96.7467 78.6053 94.528 82.872C92.3947 87.0533 90.5173 91.7893 88.896 97.08C87.2747 102.371 85.824 107.832 84.544 113.464C83.264 119.096 82.0693 124.557 80.96 129.848C79.8507 135.139 78.784 139.96 77.76 144.312C76.736 148.664 75.6693 152.12 74.56 154.68C73.3653 157.411 71.8293 159.373 69.952 160.568C68.0747 161.763 65.3867 162.104 61.888 161.592Z" fill="#80DD36"/>
<path d="M61.888 161.592C59.328 161.165 57.7067 160.141 57.024 158.52C56.256 156.984 56.64 154.893 58.176 152.248C60.224 148.749 62.1013 144.525 63.808 139.576C65.4293 134.712 67.0507 129.421 68.672 123.704C70.208 117.987 71.872 112.227 73.664 106.424C75.456 100.536 77.4613 94.904 79.68 89.528C81.984 84.152 84.6293 79.3733 87.616 75.192C90.688 71.0107 94.2293 67.6827 98.24 65.208C102.336 62.7333 107.072 61.496 112.448 61.496C117.483 61.496 121.963 62.7333 125.888 65.208C129.899 67.6827 133.056 71.1813 135.36 75.704C137.749 80.1413 138.944 85.432 138.944 91.576C138.944 98.1467 138.005 103.992 136.128 109.112C134.336 114.147 131.904 118.413 128.832 121.912C125.76 125.411 122.347 128.056 118.592 129.848C114.837 131.64 111.04 132.536 107.2 132.536C103.275 132.536 100.075 131.811 97.6 130.36C95.2107 128.824 93.376 126.904 92.096 124.6C90.816 122.296 90.0053 119.949 89.664 117.56C89.4933 116.195 89.9627 115.384 91.072 115.128C92.2667 114.787 93.0347 115.085 93.376 116.024C94.144 117.901 95.296 119.523 96.832 120.888C98.4533 122.168 100.672 122.808 103.488 122.808C107.755 122.808 111.381 121.187 114.368 117.944C117.44 114.616 119.787 110.179 121.408 104.632C123.115 99 123.968 92.6853 123.968 85.688C123.968 80.3973 123.115 76.3013 121.408 73.4C119.701 70.4987 116.501 69.048 111.808 69.048C108.139 69.048 104.896 70.2853 102.08 72.76C99.264 75.2347 96.7467 78.6053 94.528 82.872C92.3947 87.0533 90.5173 91.7893 88.896 97.08C87.2747 102.371 85.824 107.832 84.544 113.464C83.264 119.096 82.0693 124.557 80.96 129.848C79.8507 135.139 78.784 139.96 77.76 144.312C76.736 148.664 75.6693 152.12 74.56 154.68C73.3653 157.411 71.8293 159.373 69.952 160.568C68.0747 161.763 65.3867 162.104 61.888 161.592Z" fill="url(#paint1_linear_207_9)" fill-opacity="0.2"/>
</g>
</g>
<defs>
<filter id="filter0_d_207_9" x="0" y="6" width="208" height="208" filterUnits="userSpaceOnUse" color-interpolation-filters="sRGB">
<feFlood flood-opacity="0" result="BackgroundImageFix"/>
<feColorMatrix in="SourceAlpha" type="matrix" values="0 0 0 0 0 0 0 0 0 0 0 0 0 0 0 0 0 0 127 0" result="hardAlpha"/>
<feOffset dy="4"/>
<feGaussianBlur stdDeviation="2"/>
<feComposite in2="hardAlpha" operator="out"/>
<feColorMatrix type="matrix" values="0 0 0 0 0 0 0 0 0 0 0 0 0 0 0 0 0 0 0.25 0"/>
<feBlend mode="normal" in2="BackgroundImageFix" result="effect1_dropShadow_207_9"/>
<feBlend mode="normal" in="SourceGraphic" in2="effect1_dropShadow_207_9" result="shape"/>
</filter>
<filter id="filter1_d_207_9" x="0" y="6" width="208" height="208" filterUnits="userSpaceOnUse" color-interpolation-filters="sRGB">
<feFlood flood-opacity="0" result="BackgroundImageFix"/>
<feColorMatrix in="SourceAlpha" type="matrix" values="0 0 0 0 0 0 0 0 0 0 0 0 0 0 0 0 0 0 127 0" result="hardAlpha"/>
<feOffset dy="4"/>
<feGaussianBlur stdDeviation="2"/>
<feComposite in2="hardAlpha" operator="out"/>
<feColorMatrix type="matrix" values="0 0 0 0 0 0 0 0 0 0 0 0 0 0 0 0 0 0 0.25 0"/>
<feBlend mode="normal" in2="BackgroundImageFix" result="effect1_dropShadow_207_9"/>
<feBlend mode="normal" in="SourceGraphic" in2="effect1_dropShadow_207_9" result="shape"/>
</filter>
<filter id="filter2_d_207_9" x="51.872" y="61.496" width="91.072" height="108.864" filterUnits="userSpaceOnUse" color-interpolation-filters="sRGB">
<feFlood flood-opacity="0" result="BackgroundImageFix"/>
<feColorMatrix in="SourceAlpha" type="matrix" values="0 0 0 0 0 0 0 0 0 0 0 0 0 0 0 0 0 0 127 0" result="hardAlpha"/>
<feOffset dy="4"/>
<feGaussianBlur stdDeviation="2"/>
<feComposite in2="hardAlpha" operator="out"/>
<feColorMatrix type="matrix" values="0 0 0 0 0 0 0 0 0 0 0 0 0 0 0 0 0 0 0.25 0"/>
<feBlend mode="normal" in2="BackgroundImageFix" result="effect1_dropShadow_207_9"/>
<feBlend mode="normal" in="SourceGraphic" in2="effect1_dropShadow_207_9" result="shape"/>
</filter>
<linearGradient id="paint0_linear_207_9" x1="199.833" y1="210.167" x2="25.6667" y2="31.8333" gradientUnits="userSpaceOnUse">
<stop stop-color="white"/>
<stop offset="1" stop-opacity="0"/>
</linearGradient>
<linearGradient id="paint1_linear_207_9" x1="124.595" y1="96.39" x2="73.7149" y2="163.607" gradientUnits="userSpaceOnUse">
<stop stop-color="#828282"/>
<stop offset="1" stop-opacity="0"/>
</linearGradient>
</defs>
</svg>
